<?xml version="1.0" encoding="iso-8859-1"?>
<!-- Uploaded to: SVG Repo, www.svgrepo.com, Generator: SVG Repo Mixer Tools -->
<svg height="800px" width="800px" version="1.1" id="Layer_1" xmlns="http://www.w3.org/2000/svg" xmlns:xlink="http://www.w3.org/1999/xlink" 
	 viewBox="0 0 292.103 292.103" xml:space="preserve">
<g>
	<g>
		<g id="XMLID_18_">
			<g>
				<g>
					<g>
						<path style="fill:#EAEEEF;" d="M258.619,62.39v133.491H32.153V62.39c0-2.946,2.344-5.322,5.195-5.322h216.075
							C256.275,57.068,258.619,59.444,258.619,62.39z"/>
					</g>
				</g>
				<g>
					<g>
						<path style="fill:#505967;" d="M180.564,235.035H33.737c-9.725,0-17.645-8.11-17.645-18.088v-4.593h80.494l6.272,14.667
							c1.267,2.978,4.15,4.942,7.349,4.942h70.357V235.035z"/>
					</g>
				</g>
				<g>
					<g>
						<path style="fill:#505967;" d="M258.366,235.035h-77.801v-3.073c3.168,0,6.082-1.964,7.349-4.942l6.272-14.667h81.856v4.593
							C276.042,226.925,268.122,235.035,258.366,235.035z"/>
					</g>
				</g>
				<g>
					<g>
						<path style="fill:#2D213F;" d="M292.103,204.117v12.83c0,19.07-15.142,34.592-33.737,34.592H33.737
							C15.142,251.539,0,236.017,0,216.947v-12.83c0-4.562,3.611-8.236,8.046-8.236h8.046V62.39
							c0-12.038,9.535-21.826,21.256-21.826h216.075c11.721,0,21.256,9.788,21.256,21.826v133.491h9.377
							C288.491,195.881,292.103,199.555,292.103,204.117z M276.042,216.947v-4.593h-81.856l-6.272,14.667
							c-1.267,2.978-4.182,4.942-7.349,4.942h-70.357c-3.199,0-6.082-1.964-7.349-4.942l-6.272-14.667H16.092v4.593
							c0,9.979,7.919,18.088,17.645,18.088h146.827h77.801C268.122,235.035,276.042,226.925,276.042,216.947z M258.619,195.881
							V62.39c0-2.946-2.344-5.322-5.195-5.322H37.348c-2.851,0-5.195,2.376-5.195,5.322v133.491H258.619z M175.306,215.458
							l1.33-3.104h-62.501l1.33,3.104H175.306z"/>
					</g>
				</g>
			</g>
		</g>
		<g>
			<g>
				<path style="fill:#C5CBCF;" d="M258.619,100.432c-32.505,27.788-97.815,66.936-226.466,94.971v0.478h226.466V100.432z"/>
			</g>
		</g>
	</g>
</g>
</svg>