<?xml version="1.0" encoding="iso-8859-1"?>
<!-- Uploaded to: SVG Repo, www.svgrepo.com, Generator: SVG Repo Mixer Tools -->
<svg version="1.1" id="Layer_1" xmlns="http://www.w3.org/2000/svg" xmlns:xlink="http://www.w3.org/1999/xlink" 
	 viewBox="0 0 512 512" xml:space="preserve">
<path style="fill:#9FD25A;" d="M431.437,0H80.563c-4.391,0-7.95,3.56-7.95,7.95V503.52c0,4.683,3.797,8.48,8.48,8.48h349.814
	c4.683,0,8.48-3.797,8.48-8.48V7.95C439.387,3.56,435.828,0,431.437,0z"/>
<path style="fill:#FF675C;" d="M166.957,413.416H72.613V7.95c0-4.391,3.56-7.95,7.95-7.95h86.393V413.416z"/>
<path style="fill:#DB3D5A;" d="M80.563,0c-4.391,0-7.95,3.56-7.95,7.95v405.466h16.961V0H80.563z"/>
<path style="fill:#F9F8F9;" d="M72.613,405.466v98.054c0,4.683,3.797,8.48,8.48,8.48h342.393V397.516H80.563
	C76.172,397.516,72.613,401.075,72.613,405.466z"/>
<g>
	<path style="fill:#C1BCBF;" d="M295.752,452.638H121.905c-4.392,0-7.95-3.56-7.95-7.95s3.559-7.95,7.95-7.95h173.847
		c4.392,0,7.95,3.56,7.95,7.95S300.143,452.638,295.752,452.638z"/>
	<path style="fill:#C1BCBF;" d="M295.752,478.079h-93.284c-4.392,0-7.95-3.56-7.95-7.95c0-4.391,3.559-7.95,7.95-7.95h93.284
		c4.392,0,7.95,3.56,7.95,7.95C303.702,474.519,300.143,478.079,295.752,478.079z"/>
	<path style="fill:#C1BCBF;" d="M168.547,478.079h-46.642c-4.392,0-7.95-3.56-7.95-7.95c0-4.391,3.559-7.95,7.95-7.95h46.642
		c4.392,0,7.95,3.56,7.95,7.95C176.497,474.519,172.938,478.079,168.547,478.079z"/>
</g>
<path style="fill:#FBC96C;" d="M328.083,414.476v69.953c0,4.283,4.817,6.797,8.331,4.348l23.62-16.462
	c1.821-1.269,4.24-1.269,6.061,0l23.62,16.462c3.514,2.449,8.331-0.066,8.331-4.348v-69.953H328.083z"/>
<rect x="328.083" y="414.476" style="fill:#F78B4F;" width="69.963" height="21.201"/>
<path style="fill:#5293C4;" d="M439.387,405.996v-8.48H80.563c-4.391,0-7.95,3.56-7.95,7.95v98.054c0,4.683,3.797,8.48,8.48,8.48
	h349.814c4.683,0,8.48-3.797,8.48-8.48l0,0c0-4.683-3.797-8.48-8.48-8.48H93.814c-2.342,0-4.24-1.898-4.24-4.24v-72.083
	c0-2.342,1.899-4.24,4.24-4.24h337.093C435.59,414.476,439.387,410.679,439.387,405.996z"/>
<g>
	<path style="fill:#FFFFFF;" d="M399.469,254.99c3.082-3.128,3.043-8.161-0.084-11.243c-3.126-3.08-8.159-3.044-11.243,0.085
		l-19.895,20.196l-33.569-19.382c-2.459-1.42-5.491-1.42-7.95,0l-38.339,22.135c-2.459,1.42-3.975,4.044-3.975,6.885v44.268
		c0,2.841,1.516,5.466,3.975,6.885l33.863,19.55v27.705c0,4.391,3.559,7.95,7.95,7.95s7.95-3.56,7.95-7.95v-27.128l27.717-16.002
		l22.764,19.488c1.499,1.283,3.337,1.911,5.167,1.911c2.242,0,4.471-0.943,6.043-2.78c2.856-3.335,2.467-8.354-0.868-11.21
		l-21.985-18.821v-39.724L399.469,254.99z M361.09,313.344l-30.387,17.544l-30.388-17.544v-35.088l30.388-17.545l30.387,17.545
		V313.344z"/>
	<path style="fill:#FFFFFF;" d="M313.919,277.502c-4.392,0-7.95,3.56-7.95,7.95v21.201c0,4.391,3.559,7.95,7.95,7.95
		s7.95-3.56,7.95-7.95v-21.201C321.869,281.061,318.309,277.502,313.919,277.502z"/>
	<path style="fill:#FFFFFF;" d="M316.952,233.336v-44.268c0-2.841-1.516-5.465-3.975-6.885l-38.337-22.135
		c-2.459-1.42-5.491-1.42-7.95,0l-31.193,18.009l-22.764-19.489c-3.335-2.856-8.354-2.466-11.21,0.869
		c-2.856,3.335-2.467,8.354,0.868,11.21l21.985,18.821v39.724l-22.478,22.818c-3.082,3.128-3.043,8.161,0.084,11.243
		c1.549,1.525,3.564,2.287,5.58,2.287c2.054,0,4.108-0.792,5.664-2.371l19.895-20.196l33.57,19.382
		c1.23,0.71,2.602,1.065,3.975,1.065s2.746-0.355,3.975-1.065l38.337-22.134C315.437,238.801,316.952,236.176,316.952,233.336z
		 M301.052,228.746l-30.387,17.544l-30.388-17.544v-35.088l30.388-17.545l30.387,17.544V228.746z"/>
	<path style="fill:#FFFFFF;" d="M287.448,229.499c4.392,0,7.95-3.56,7.95-7.95v-21.201c0-4.391-3.559-7.95-7.95-7.95
		s-7.95,3.56-7.95,7.95v21.201C279.498,225.939,283.056,229.499,287.448,229.499z"/>
	<path style="fill:#FFFFFF;" d="M288.39,155.116l38.339,22.135c1.23,0.71,2.602,1.065,3.975,1.065c1.373,0,2.746-0.355,3.975-1.065
		l33.569-19.382l19.895,20.196c1.556,1.579,3.608,2.371,5.664,2.371c2.014,0,4.031-0.761,5.58-2.287
		c3.127-3.082,3.165-8.115,0.084-11.243l-22.478-22.818v-39.724l21.985-18.821c3.335-2.855,3.725-7.874,0.868-11.21
		c-2.855-3.336-7.873-3.725-11.21-0.869l-22.764,19.488l-27.718-16.002V49.822c0-4.391-3.559-7.95-7.95-7.95s-7.95,3.56-7.95,7.95
		v27.705l-33.863,19.55c-2.459,1.419-3.975,4.044-3.975,6.885v44.268C284.414,151.072,285.929,153.695,288.39,155.116z
		 M300.315,108.552l30.388-17.544l30.387,17.544v35.088l-30.387,17.545l-30.388-17.545V108.552z"/>
	<path style="fill:#FFFFFF;" d="M313.919,107.293c-4.392,0-7.95,3.56-7.95,7.95v21.201c0,4.391,3.559,7.95,7.95,7.95
		s7.95-3.56,7.95-7.95v-21.201C321.869,110.853,318.309,107.293,313.919,107.293z"/>
</g>
</svg>